# Blender v2.79 (sub 0) OBJ File: 'Fence2.blend'
# www.blender.org
mtllib Fence2.mtl
o Fence2_Cube.024
v 2.502446 0.102921 -0.030924
v 2.502446 0.975462 -0.030924
v 2.502446 0.102921 0.030924
v 2.502446 0.975462 0.030924
v 2.292193 0.102921 -0.030924
v 2.292193 0.975462 -0.030924
v 2.292193 0.102921 0.030924
v 2.292193 0.975462 0.030924
v 2.397320 0.102921 0.030924
v 2.397320 1.164035 0.030924
v 2.397320 0.102921 -0.030924
v 2.397320 1.164035 -0.030924
v 2.123992 0.102921 -0.030924
v 2.123992 0.975462 -0.030924
v 2.123992 0.102921 0.030924
v 2.123992 0.975462 0.030924
v 1.913739 0.102921 -0.030924
v 1.913739 0.975462 -0.030924
v 1.913739 0.102921 0.030924
v 1.913739 0.975462 0.030924
v 2.018865 0.102921 0.030924
v 2.018865 1.164035 0.030924
v 2.018865 0.102921 -0.030924
v 2.018865 1.164035 -0.030924
v 1.745538 0.102921 -0.030924
v 1.745538 0.975462 -0.030924
v 1.745537 0.102921 0.030924
v 1.745537 0.975462 0.030924
v 1.535285 0.102921 -0.030924
v 1.535285 0.975462 -0.030924
v 1.535285 0.102921 0.030924
v 1.535285 0.975462 0.030924
v 1.640411 0.102921 0.030924
v 1.640411 1.164035 0.030924
v 1.640411 0.102921 -0.030924
v 1.640411 1.164035 -0.030924
v 1.367083 0.102921 -0.030924
v 1.367083 0.975462 -0.030924
v 1.367083 0.102921 0.030924
v 1.367083 0.975462 0.030924
v 1.156831 0.102921 -0.030924
v 1.156831 0.975462 -0.030924
v 1.156831 0.102921 0.030924
v 1.156831 0.975462 0.030924
v 1.261957 0.102921 0.030924
v 1.261957 1.164035 0.030924
v 1.261957 0.102921 -0.030924
v 1.261957 1.164035 -0.030924
v 0.988629 0.102921 -0.030924
v 0.988629 0.975462 -0.030924
v 0.988629 0.102921 0.030924
v 0.988629 0.975462 0.030924
v 0.778377 0.102921 -0.030924
v 0.778377 0.975462 -0.030924
v 0.778377 0.102921 0.030924
v 0.778377 0.975462 0.030924
v 0.883503 0.102921 0.030924
v 0.883503 1.164035 0.030924
v 0.883503 0.102921 -0.030924
v 0.883503 1.164035 -0.030924
v 0.610175 0.102921 -0.030924
v 0.610175 0.975462 -0.030924
v 0.610175 0.102921 0.030924
v 0.610175 0.975462 0.030924
v 0.399922 0.102921 -0.030924
v 0.399922 0.975462 -0.030924
v 0.399922 0.102921 0.030924
v 0.399922 0.975462 0.030924
v 0.505049 0.102921 0.030924
v 0.505049 1.164035 0.030924
v 0.505049 0.102921 -0.030924
v 0.505049 1.164035 -0.030924
v -2.502446 0.102921 -0.030924
v -2.502446 0.975462 -0.030924
v -2.502446 0.102921 0.030924
v -2.502446 0.975462 0.030924
v -2.292193 0.102921 -0.030924
v -2.292193 0.975462 -0.030924
v -2.292193 0.102921 0.030924
v -2.292193 0.975462 0.030924
v -2.397320 0.102921 0.030924
v -2.397320 1.164035 0.030924
v -2.397320 0.102921 -0.030924
v -2.397320 1.164035 -0.030924
v -2.123992 0.102921 -0.030924
v -2.123992 0.975462 -0.030924
v -2.123992 0.102921 0.030924
v -2.123992 0.975462 0.030924
v -1.913739 0.102921 -0.030924
v -1.913739 0.975462 -0.030924
v -1.913739 0.102921 0.030924
v -1.913739 0.975462 0.030924
v -2.018865 0.102921 0.030924
v -2.018865 1.164035 0.030924
v -2.018865 0.102921 -0.030924
v -2.018865 1.164035 -0.030924
v -1.745537 0.102921 -0.030924
v -1.745537 0.975462 -0.030924
v -1.745537 0.102921 0.030924
v -1.745537 0.975462 0.030924
v -1.535285 0.102921 -0.030924
v -1.535285 0.975462 -0.030924
v -1.535285 0.102921 0.030924
v -1.535285 0.975462 0.030924
v -1.640411 0.102921 0.030924
v -1.640411 1.164035 0.030924
v -1.640411 0.102921 -0.030924
v -1.640411 1.164035 -0.030924
v -1.367083 0.102921 -0.030924
v -1.367083 0.975462 -0.030924
v -1.367083 0.102921 0.030924
v -1.367083 0.975462 0.030924
v -1.156831 0.102921 -0.030924
v -1.156831 0.975462 -0.030924
v -1.156831 0.102921 0.030924
v -1.156831 0.975462 0.030924
v -1.261957 0.102921 0.030924
v -1.261957 1.164035 0.030924
v -1.261957 0.102921 -0.030924
v -1.261957 1.164035 -0.030924
v -0.988629 0.102921 -0.030924
v -0.988629 0.975462 -0.030924
v -0.988629 0.102921 0.030924
v -0.988629 0.975462 0.030924
v -0.778377 0.102921 -0.030924
v -0.778377 0.975462 -0.030924
v -0.778377 0.102921 0.030924
v -0.778377 0.975462 0.030924
v -0.883503 0.102921 0.030924
v -0.883503 1.164035 0.030924
v -0.883503 0.102921 -0.030924
v -0.883503 1.164035 -0.030924
v -0.610175 0.102921 -0.030924
v -0.610175 0.975462 -0.030924
v -0.610175 0.102921 0.030924
v -0.610175 0.975462 0.030924
v -0.399922 0.102921 -0.030924
v -0.399922 0.975462 -0.030924
v -0.399922 0.102921 0.030924
v -0.399922 0.975462 0.030924
v -0.505049 0.102921 0.030924
v -0.505049 1.164035 0.030924
v -0.505049 0.102921 -0.030924
v -0.505049 1.164035 -0.030924
v 2.945063 -0.009340 -0.082752
v 2.945063 1.087723 -0.082752
v 2.945063 -0.009340 0.082753
v 2.945063 1.087723 0.082753
v 2.777726 -0.009340 -0.082752
v 2.777726 1.087723 -0.082752
v 2.777726 -0.009340 0.082753
v 2.777726 1.087723 0.082753
v 0.084498 1.087723 0.082753
v 0.084498 -0.009340 0.082753
v 0.084498 1.087723 -0.082753
v 0.084498 -0.009340 -0.082753
v 2.941604 0.406336 -0.035312
v 2.941604 0.406336 0.035313
v 2.941604 0.197310 -0.035312
v 2.941604 0.197310 0.035313
v 2.941604 0.871450 -0.035312
v 2.941604 0.871450 0.035313
v 2.941604 0.662424 -0.035312
v 2.941604 0.662424 0.035313
v -2.945063 -0.009340 -0.082753
v -2.945063 1.087723 -0.082753
v -2.945063 -0.009340 0.082753
v -2.945063 1.087723 0.082753
v -2.777726 -0.009340 -0.082753
v -2.777726 1.087723 -0.082753
v -2.777726 -0.009340 0.082753
v -2.777726 1.087723 0.082753
v -0.084498 1.087723 0.082753
v -0.084498 -0.009340 0.082753
v -0.084498 1.087723 -0.082753
v -0.084498 -0.009340 -0.082753
v -2.941604 0.406336 -0.035313
v 0.000000 0.406336 -0.050155
v -2.941604 0.406336 0.035312
v -0.000000 0.406336 0.050155
v -2.941604 0.197310 -0.035313
v 0.000000 0.197310 -0.050155
v -2.941604 0.197310 0.035312
v -0.000000 0.197310 0.050155
v -2.941604 0.871450 -0.035313
v 0.000000 0.871450 -0.050155
v -2.941604 0.871450 0.035312
v -0.000000 0.871450 0.050155
v -2.941604 0.662424 -0.035313
v 0.000000 0.662424 -0.050155
v -2.941604 0.662424 0.035312
v -0.000000 0.662424 0.050155
v 0.000000 1.087723 -0.082753
v 0.000000 -0.009340 -0.082753
v -0.000000 1.087723 0.082753
v -0.000000 -0.009340 0.082753
vn 1.0000 0.0000 0.0000
vn -0.0000 0.0000 1.0000
vn -1.0000 0.0000 0.0000
vn 0.0000 0.0000 -1.0000
vn 0.0000 -1.0000 0.0000
vn 0.8734 0.4869 0.0000
vn -0.8734 0.4869 0.0000
vn 0.0000 1.0000 0.0000
vn 0.0050 0.0000 1.0000
vn 0.0050 0.0000 -1.0000
vn -0.0050 0.0000 1.0000
vn -0.0050 0.0000 -1.0000
usemtl Brown
s off
f 1//1 2//1 4//1 3//1
f 9//2 10//2 8//2 7//2
f 7//3 8//3 6//3 5//3
f 11//4 12//4 2//4 1//4
f 9//5 7//5 5//5 11//5
f 10//6 4//6 2//6 12//6
f 8//7 10//7 12//7 6//7
f 3//5 9//5 11//5 1//5
f 5//4 6//4 12//4 11//4
f 3//2 4//2 10//2 9//2
f 13//1 14//1 16//1 15//1
f 21//2 22//2 20//2 19//2
f 19//3 20//3 18//3 17//3
f 23//4 24//4 14//4 13//4
f 21//5 19//5 17//5 23//5
f 22//6 16//6 14//6 24//6
f 20//7 22//7 24//7 18//7
f 15//5 21//5 23//5 13//5
f 17//4 18//4 24//4 23//4
f 15//2 16//2 22//2 21//2
f 25//1 26//1 28//1 27//1
f 33//2 34//2 32//2 31//2
f 31//3 32//3 30//3 29//3
f 35//4 36//4 26//4 25//4
f 33//5 31//5 29//5 35//5
f 34//6 28//6 26//6 36//6
f 32//7 34//7 36//7 30//7
f 27//5 33//5 35//5 25//5
f 29//4 30//4 36//4 35//4
f 27//2 28//2 34//2 33//2
f 37//1 38//1 40//1 39//1
f 45//2 46//2 44//2 43//2
f 43//3 44//3 42//3 41//3
f 47//4 48//4 38//4 37//4
f 45//5 43//5 41//5 47//5
f 46//6 40//6 38//6 48//6
f 44//7 46//7 48//7 42//7
f 39//5 45//5 47//5 37//5
f 41//4 42//4 48//4 47//4
f 39//2 40//2 46//2 45//2
f 49//1 50//1 52//1 51//1
f 57//2 58//2 56//2 55//2
f 55//3 56//3 54//3 53//3
f 59//4 60//4 50//4 49//4
f 57//5 55//5 53//5 59//5
f 58//6 52//6 50//6 60//6
f 56//7 58//7 60//7 54//7
f 51//5 57//5 59//5 49//5
f 53//4 54//4 60//4 59//4
f 51//2 52//2 58//2 57//2
f 61//1 62//1 64//1 63//1
f 69//2 70//2 68//2 67//2
f 67//3 68//3 66//3 65//3
f 71//4 72//4 62//4 61//4
f 69//5 67//5 65//5 71//5
f 70//6 64//6 62//6 72//6
f 68//7 70//7 72//7 66//7
f 63//5 69//5 71//5 61//5
f 65//4 66//4 72//4 71//4
f 63//2 64//2 70//2 69//2
f 73//3 75//3 76//3 74//3
f 81//2 79//2 80//2 82//2
f 79//1 77//1 78//1 80//1
f 83//4 73//4 74//4 84//4
f 81//5 83//5 77//5 79//5
f 82//7 84//7 74//7 76//7
f 80//6 78//6 84//6 82//6
f 75//5 73//5 83//5 81//5
f 77//4 83//4 84//4 78//4
f 75//2 81//2 82//2 76//2
f 85//3 87//3 88//3 86//3
f 93//2 91//2 92//2 94//2
f 91//1 89//1 90//1 92//1
f 95//4 85//4 86//4 96//4
f 93//5 95//5 89//5 91//5
f 94//7 96//7 86//7 88//7
f 92//6 90//6 96//6 94//6
f 87//5 85//5 95//5 93//5
f 89//4 95//4 96//4 90//4
f 87//2 93//2 94//2 88//2
f 97//3 99//3 100//3 98//3
f 105//2 103//2 104//2 106//2
f 103//1 101//1 102//1 104//1
f 107//4 97//4 98//4 108//4
f 105//5 107//5 101//5 103//5
f 106//7 108//7 98//7 100//7
f 104//6 102//6 108//6 106//6
f 99//5 97//5 107//5 105//5
f 101//4 107//4 108//4 102//4
f 99//2 105//2 106//2 100//2
f 109//3 111//3 112//3 110//3
f 117//2 115//2 116//2 118//2
f 115//1 113//1 114//1 116//1
f 119//4 109//4 110//4 120//4
f 117//5 119//5 113//5 115//5
f 118//7 120//7 110//7 112//7
f 116//6 114//6 120//6 118//6
f 111//5 109//5 119//5 117//5
f 113//4 119//4 120//4 114//4
f 111//2 117//2 118//2 112//2
f 121//3 123//3 124//3 122//3
f 129//2 127//2 128//2 130//2
f 127//1 125//1 126//1 128//1
f 131//4 121//4 122//4 132//4
f 129//5 131//5 125//5 127//5
f 130//7 132//7 122//7 124//7
f 128//6 126//6 132//6 130//6
f 123//5 121//5 131//5 129//5
f 125//4 131//4 132//4 126//4
f 123//2 129//2 130//2 124//2
f 133//3 135//3 136//3 134//3
f 141//2 139//2 140//2 142//2
f 139//1 137//1 138//1 140//1
f 143//4 133//4 134//4 144//4
f 141//5 143//5 137//5 139//5
f 142//7 144//7 134//7 136//7
f 140//6 138//6 144//6 142//6
f 135//5 133//5 143//5 141//5
f 137//4 143//4 144//4 138//4
f 135//2 141//2 142//2 136//2
f 145//1 146//1 148//1 147//1
f 147//2 148//2 152//2 151//2
f 151//3 152//3 150//3 149//3
f 149//4 150//4 146//4 145//4
f 147//5 151//5 149//5 145//5
f 152//8 148//8 146//8 150//8
f 195//8 153//8 155//8 193//8
f 194//4 193//4 155//4 156//4
f 157//8 178//8 180//8 158//8
f 158//9 180//9 184//9 160//9
f 160//5 184//5 182//5 159//5
f 159//10 182//10 178//10 157//10
f 158//1 160//1 159//1 157//1
f 161//8 186//8 188//8 162//8
f 162//9 188//9 192//9 164//9
f 164//5 192//5 190//5 163//5
f 163//10 190//10 186//10 161//10
f 162//1 164//1 163//1 161//1
f 156//1 155//1 153//1 154//1
f 154//2 153//2 195//2 196//2
f 154//5 196//5 194//5 156//5
f 165//3 167//3 168//3 166//3
f 167//2 171//2 172//2 168//2
f 171//1 169//1 170//1 172//1
f 169//4 165//4 166//4 170//4
f 167//5 165//5 169//5 171//5
f 172//8 170//8 166//8 168//8
f 195//8 193//8 175//8 173//8
f 194//4 176//4 175//4 193//4
f 177//8 179//8 180//8 178//8
f 179//11 183//11 184//11 180//11
f 183//5 181//5 182//5 184//5
f 181//12 177//12 178//12 182//12
f 179//3 177//3 181//3 183//3
f 185//8 187//8 188//8 186//8
f 187//11 191//11 192//11 188//11
f 191//5 189//5 190//5 192//5
f 189//12 185//12 186//12 190//12
f 187//3 185//3 189//3 191//3
f 176//3 174//3 173//3 175//3
f 174//2 196//2 195//2 173//2
f 174//5 176//5 194//5 196//5
